<svg version="1.1" id="レイヤー_1" xmlns="http://www.w3.org/2000/svg" x="0" y="0" viewBox="0 0 446 570" xml:space="preserve"><style>.st1{fill:#fff;stroke:#000;stroke-width:.2;stroke-linejoin:round}</style><path d="M210 289v-2l1-5 4-4 1-1 2 2 3-2-5-2 1-3-4-6 1-2h3l1-5-2-4v-2l-5-4v-2h2-1l-6-6 1-2 1-1v-9l-3 1h-3l-3-3-1 1-6-3v-5l-3-3-3 1 1 3-5 8h-3v-3l4-3-4-1v-2l-2 2 1-2-3-3-2 4 1-3-3 3-2-1-1-3-2-5 1-6-1 5-4-1h-1l2-1-2-3 1-4 3-2 2 2-2 2 2-2v2-3l-6-3-5-1v-4l-4-3-7 10-4-1-6 8-1-1v1l-2-1-1 1-1-1-1 1-2-1-3 4-5 8 23 25 1-3-3-4 1-1 4 4 2-1-1 4-2 1 4 1 2-4v5l4-2v2l-3 1 1 8 5 2-13 1v1l9 5h2l4 3 1 1 1-4 2 1 2 2 4 4 1-1 6 2 5-2 1-2 2 1 4-2 1 2 1-3 4 3 1 2-1 3-3 2 2 1h-1l4 8 8 1v3h3l-1-3 4 1v3zm-69-43l2 9 9-1-3-7-8-1z" fill="#1d9eff" stroke="#000" stroke-width=".2" stroke-linejoin="round"/><path class="st1" d="M74 551l7-1 8-4v-4l2 1 5-7 2-6-2-7 4-9 2-8 6-7 16-13h1l7-4 6 2v-3h3v-1h-1l-1-1 2-1 1-2 5-1 1-1-2-2 1-3 3-1h-1l1-1-1-4 6-6 6-2 5 2 3-3 9 2 1-3 2-1 2 2-1 2 2 4 4-2 6-1h3l-1-2 4-2 2-1-1-3h3l1-1 3 1 2-1 1 3 7-4-1-3 2-2h4l2 3h-1v4l2-2h4l2-11 4-4 1-2h-5l-6 1-1-5-3-2 1-4h1l-1-4 4-3h1l1-2 1 1 2-3 3 4 4-2 2 2 2-1 1 4-2 3 3 1 2 2 1-1 3 2 4-5-1-3 3-7 2-11-2-2 1 1-1-1h2l-2-1-1-4 6-17v-3l-4-8-2-1-4-1-1 1-5 1 1-6-12-1-1 1-6-1-2 1-4 3h-3l-3 7-4 1-2 2 2 8-4 3v2l-4 1-1 1 2 3 7 3 3 5-2 2v4l-4 3-6 1 3 4-4 1v2l-2 1v9l-3 7-4-4-5 4-4-2-3 4h-1l-1 2-5 2-4-3v-4l-4-11-1-1-3-8v-2l4-8h2l-1-2 1 1v-1l4-1 2 2 1-4 1-7 4-1 5-4-2-10 5 4 1-2 1 2 3-3 2 1-2-5-2-5-3-3-1-13v-2l-2 1-2-2 1-4h2l-2-6h-2l-2-7-3-5v-1l-3-5 4-2-1-2h2v-3l-6-4 2-2-1-3h5v-3l3 2 2-2v-2h3l-1-2 3-1 8 3 4-1 2 6-3 4 1 1 1 8 3 3 1 3 1 1-1 5-5 3 1 1 2-1v3l2 1 6-3 1 3-2 3 2 4h9l1-1 2-4h3l-3-5v-1h2l2-1v-5h4l1-1-2-2 2 1-1-2h4l1-3-3-1v-2l1-2-1 1 1-4 2-1 1-3 3-2v-4h4v3h2l2-3-1-6-2-3-6 1-2-2-2 6-8-5 2-1-1-2-3 1-1-1-7 2-5-1-4 3v-3l-4-1 1 3h-3v-3l-8-1-4-8h1l-2-1 3-2 1-3-1-2-4-3-1 3-1-2-4 2-2-1-1 2-5 2-6-2-1 1-4-4-2-2-2-1-1 4-1-1-4-3h-2v1l-6-3-4 2v2l2-1-2 1 2-1 1 1-2 2 4 2-2 1-8-7-2 2v3l-2-2-3 4 2 2-1 2-3-2-4 6 3 3-1 1-3-2-4 5 4 3v1l-5-2-2 3 1 2-1-1-2 2 3 1 1 6-5-5-4 2 2 3-1 1-2-3-2 1 3 6-2 2v-2l-3-8-6 3 3 9-7 2-1-4 2 2 2-2v-3l-5 1-1 6h-3l-8 2v-1l-6 5v3l-1 2 2 2-2-2v2l1 1-1 1 3 8 4 1 1 1-1 2h-1l-6 3v1l2-1 1 2-1 1-1-1h-5l4 6-4-2-9-2-6-4-3 4 6 5 1 2-2 1-2 1-3-6-6 6 3 4h3v2l-6 4v-1l-2 1 1 3-2 1v-2l-3 2-8 1 18 6 7 6v4l-2-1v3l6 8 2 5v10l-5 3-9 5-3 4-2 7v4l2 2-2 4 4-1 10-3 7 4 5-2 4 2 5 8h7l-1 3v1l-1 1-1 3-2 3h-7l-7 2-4-1-7 2-1 3-3-1-1 1 2 7-1 3-7 2v3l2 2 2 7-2 4-3-1-1-2-2 3 6 3 3-1 3 4h3l3 6-1 7-1 3-4 1v-3h-7l1 2-2 4-8 2-5 1-4-3-3 2h-2l-2-2-1 2 1 2-1 2 3 3 3 2 4-1 15 9 2 4-2 3h2l-1 4 2 1 3 3 9-1 8 1h1v2l2-3h3zm184-269l2-4-4-3-4-1 2-2 1 1v-3l2 3 3-1 2 2 2-6-1-5h3l1-3h2v-4l2-1 11 10 8-12 12-13-6-6-4 3-3-3 2-4h2v-3l-2-2-3 2-8-5 5-5-1-2-2 1-7-4-3 3-4-8-6-1-2 2-4-3 2-5h-4v2l-2-1-2-2-1 2-2-4-1 1 1-1-2-2h5l1-4-3-1v-4h-3l-1-1 1-2v-4h2l5 7 1-1-2-4v-3h-1l1-1 2 2 2-2 3 1-1-5-1-1-4-1h3l1-3-4-1 3-1 2-3v-4l2-1h2l2 5 7-3-2-2 4-1v-7l3-1 6 4-1 3h6l1-3 4-2 3 3-1 3h2l-1 2 8 1 4 4 2-1 3 6-5 2-2-2-1 3-2 1-3-4-4 1 1 3-1 8-6 4v2l3 4 3 3-2 3 2 6 4 1 1 2-2 1 2 1 3-3 2 5 4 1-4 5 7 9 3 4 24-20 14-9 15-5 5 1 3 4h3v-2 2l-2 1v2l3-3 5-1 3-2 17-6 8-1 3 1v3l1 2 1-1 1 2 7 2-1-4 3-2-2-3 2-2-1-4 1-3-3-5h-4l-1 2-4 1-6-1-4-2-25-18-5-6-3-6-10 5-1 3 4 1v3l2 1-2 4-4-4-3 1 1 2-3 2-1 3-7-11v2l-2-1-3 1-3-4-2 1-1-2 1-1 3-2v-2l3-1v-7l2 1 1-1v-4l-2-5 1-4-6-2-1-2-6-12-5-5-4-2-3-5-16-10-8-8-5 6-1 6h-2l-1 2 1 6 5 4-7-2-10-8-3 6-5 1 1 2-3 2-1 4-1 9 6 1v2l-1 2h-4l-1 1v-3h-2l-6 6h-3l2-1-2-1h2v-8l-3-5-2 1-4-6 1-2-7 3-3 6-10 8h-5l-7-3-3 5v4l-2 1v2l2-1 2 8-3 5-3-2-5 4-1 6-1-9h-2v1l-3-1 3-3-4-2v-4l-13 2-11-4-4 1-3-1-7-12-13-6-7 4-4-6-11-5-5-5-8 1-16-12-5-2-2-5 2-5-2-3h-3l-8-4-5-4-4-11-20-20-4-5-3-12-5-4-3 2-1 3v1l5 13 6 8 4 5-1 4 1 9-1 3 4 6v5l3 1v4l5 10 5 3 5 8 5 9 3 12-4 16 1 5-1 11 2 5v2l-4 3-1 2 4 8 4 4-2 6 2 3 5 6 1 4-4 6-8 3v3l-1 12-3 2 1 1-2 2v4l6 1 2-1 1 3 16-10-8-7 4-5 6-1v-2l-6 2 1-3 2 1 3-3 2 4 4-4 2-1 6 1v2l2 2h-2v4l6-1 1 2h-6v3l7-2 5 3 5-8 3-4 2 1 1-1 1 1 1-1 2 1v-1l1 1 6-8 4 1 7-10 4 3v4l5 1 6 3v3-2l-2 2 2-2-2-2-3 2-1 4 2 3-2 1h1l4 1 1-5-1 6 2 5 1 3 2 1 3-3-1 3 2-4 3 3-1 2 2-2v2l4 1-4 3v3h3l5-8-1-3 3-1 3 3v5l6 3 1-1 3 3h3l3-1v9l-1 1-1 2 6 6h1-2v2l5 4v2l2 4 3 3 5-2v1l3-1v3l4 5v3l1-1 2 1 1-3 3 2-1 1 3 1-1 5 1 2 8 2-1 5h2l2-5 4 2 1-1zm-7-12l2 1-1 2-1-3zM98 205l-2 3h1l1 1h3l3 1-3-3h3l-1-1-5-1zm107-20l-1-2h2l-1-4 3-3-1-4 6-1 1 3h3v-3l3 2 1 2 1 4h2-5l-3 4h2l1 5 2 2-4 4-2 1-3-2-1 2-3 2-2-7h-3v-2l-3-2 4 1 1-2zm141-32h1l2-2v-2l-1 3-2 1z"/><path class="st1" d="M51 464l1-1 3 1 1-3 7-2 4 1 7-2h7l2-3 1-3 1-1v-1l1-3h-7l-5-8-4-2-5 2-7-4-10 3-4 1 4 2 4 9h-2l1 2-5 6 2 1-1 1-1 4h5zm128-31l1-2h1l3-4 4 2 5-4 4 4 3-7v-9l2-1v-2l4-1-3-4 6-1 4-3v-4l2-2-3-5-7-3-2-3 1-1 4-1v-2l4-3-2-8 2-2 4-1 3-7h3l4-3 2-1 6 1 1-1 12 1-1 6 5-1 1-1 4 1-2-8v-15l-3-4-2 2-5-1-3 4h-2l-4-2v-3l-3 2-4-2h-3l-2 4-1 1h-9l-2-4 2-3-1-3-6 3-2-1v-3l-2 1-1-1 5-3 1-5-1-1-1-3-3-3-1-8-1-1 3-4-2-6-4 1-8-3-3 1 1 2h-3v2l-2 2-3-2v3h-5l1 3-2 2 6 4v3h-2l1 2-4 2 3 5v1l3 5 2 7h2l2 6h-2l-1 4 2 2 2-1v2l1 13 3 3 2 5 2 5-2-1-3 3-1-2-1 2-5-4 2 10-5 4-4 1-1 7-1 4-2-2-4 1v1l-1-1 1 2h-2l-4 8v2l3 8 1 1 4 11v4l4 3 5-2zm70-6l2-4-3-2-1 1-2-2-3-1 2-3-1-4-2 1-2-2-4 2-3-4-2 3-1-1-1 2h-1l-4 3 1 4h-1l-1 4 3 2 1 5 6-1h5l2-2 7 1 3-2zm7-105l2-8 4-15 6-12 6-12 6-6 2-4-11-10-2 1v4h-2l-1 3h-3l1 5-2 6-2-2-3 1-2-3v3l-1-1-2 2 4 1 4 3-2 4-1 1-4-2-2 5h-2l1-5-8-2-1-2 1-5-3-1 1-1-3-2-1 3-2-1-1 1v-3l-4-5v-3l-3 1v-1l-5 2-3-3-1 5h-3l-1 2 4 6-1 3 5 2-3 2-2-2-1 1-4 4-1 5v2l4-3 5 1 7-2 1 1 3-1 1 2-2 1 8 5 2-6 2 2 6-1 2 3 1 6-2 3h-2v-3h-4v4l-3 2-1 3-2 1-1 4 1-1-1 2v2l3 1 9 2v3l9 2zm46-82l12-11-3-4-7-9 4-5-4-1-2-5-3 3-2-1 2-1-1-2-4-1-2-6 2-3-3-3-3-4v-2l6-4 1-8-1-3 4-1 3 4 2-1 1-3 2 2 5-2-3-6-2 1-4-4-8-1 1-2h-2l1-3-3-3-4 2-1 3h-6l1-3-6-4-3 1v7l-4 1 2 2-7 3-2-5h-2l-2 1v4l-2 3-3 1 4 1-1 3h-3l4 1 1 1 1 5-3-1-2 2-2-2-1 1h1v3l2 4-1 1-5-7h-2v4l-1 2 1 1h3v4l3 1-1 4h-5l2 2-1 1 1-1 2 4 1-2 2 2 2 1v-2h4l-2 5 4 3 2-2 6 1 4 8 3-3 7 4 2-1 1 2-5 5 8 5 3-2 2 2v3h-2l-2 4 3 3 4-3 6 6zm-81-50l-2-2-1-5h-2l3-4h5-2l-1-4-1-2-3-2v3h-3l-1-3-6 1 1 4-3 3 1 4h-2l1 2-1 2-4-1 3 2v2h3l2 7 3-2 1-2 3 2 2-1 4-4zm144-27l2-4-2-1v-3l-4-1 1-3 10-5-2-8-6-5-8-4-10-2-1 4 2 5v4l-1 1-2-1v7l-3 1v2l-3 2-1 1 1 2 2-1 3 4 3-1 2 1v-2l7 11 1-3 3-2-1-2 3-1 4 4zm-19-10l2-1 1-3v2l-2 2h-1zm-143-1l1-6 5-4 3 2 3-5-2-8-2 1v-2l2-1v-4l3-5-4-1-9 6-7 3-7-4-4 1-13 7 11 4 13-2v4l4 2-3 3 3 1v-1h2l1 9zm54-24l6-6h2v3l1-1h4l1-2v-2l-6-1 1-9 1-4 3-2-1-2-4 2-9-1-7 3h-1l-1 2 4 6 2-1 3 5v8h-2l2 1-2 1h3zm-6 142l1 3 1-2-2-1zm-24 58l3 1-1-2-2 1z"/><path class="st1" d="M262 299l6-12-3-2v-1l-7-2-1 1-4-2-2 5h-2l1-5-8-2-1-2 1-5-3-1 1-1-3-2-1 3-2-1-1 1v-3l-4-5v-3l-3 1v-1l-5 2-3-3-1 5h-3l-1 2 4 6-1 3 5 2-3 2-2-2-1 1-4 4-1 5v2l4-3 5 1 7-2 1 1 3-1 1 2-2 1 8 5 2-6 2 2 6-1 2 3 1 6 12 2zm-8 39v-6l2-10-9-2v-3l-9-2-1 3h-4l1 2-2-1 2 2-1 1h-4v5l1 2-3-1h-2v1l3 5 4 2 3-2v3l4 2h2l3-4 5 1 2-2 3 4z"/><path d="M94 91l-3 4-3 2-2 2-3 1v7l-3 1 2 2 4 5v-3l-3-4 3-1 3 5-2 1 4 1v6l3-1h-2l-2 3-2-2-3 3 1 2 1-2h4l2 3h-4l-1 3 5-2 3 9-1 1v-2l-1 1-2-1-1 1 3 3 3 9h3v3l4 2 3-5 2 1-1 1 1 1 2-1v2l1-2 6 2 1 2h-1l4-2-4 7 4-7 2-7 6-8 2-1 7 2 4-1 2 3 6-3 1-6-17-4-3 2-5-4-4 2-2-2-6-1-6-4 1-2-2-2 2 1 3-3h2l3-3h-2l2-2 1 3 4-5m-40-7l-3-2v2l-3-1-1 1-9 1m208 48v-2l6-4-5 1 1-4 5-4-3-3 2-2 1 1 1-3h-3l-5-8-2 2-2-1m-106 10l-5 2-4-3-1 1-1-3-2 2m-61 5h-2l-3-7-4 2-2 4-5 3 1 1-5-1m134 41l-18-12-7 9-7-2-6-4-4-3-9-6-7-1 2-4 3-4-9-7 2-5m62 32l-2-4 1-6-4-5 1-5m-92 0l-1 1 2 2-2 2-2-1-6 1-2 1v3h2l4 1v2l-3-1-2 8 1 1v3l3-2v3h1l3 2 5-1 1 2h1-1l-1-2 1-2 3-4-1-2 3 1 2-2-3-1-2-1 5-5-4-2m29 1l-3-1-6-7-2 2-2 9-8 4-3-2-4 2m268 30l-2-2-2 1-1-2v1h-2l-2-1 2-7h1l-1-1 2-1-1-6-1 2 2-5-3 5-3 2 1-2h-3v-6l1-3-1-2-6-1v-5l-3-1m-27-8l1 2-4 3h-3l-2 4-2-4-3 4-5 3h-1l-3 5-2 1-2-2-1-2m-207 3l1 1-1-1m-1-9h-6l-1 2h-3l1 4-4 2h2l-1 3-1 1-4-2 1-2v-1l-4 1 1-2-6-3-2 6-4 2m95-4l-6 3 4 1-3 6 1 5-6 4 3 1-1 1 3 4-1 3m84-15l-2-1 1-4-3-1 4-2-4 2-5-7-5-3-3-5-3 7v3l-4 3m-115-2l2 4h3v-3l-2-2-3 1m232 36l-1-3-4 1v-6l-3-1 1-4v-3h-2v-2l-3 2v-2l-4 2-1-2 4-3 4 1v-7l1-2-4-2v2l-2-1-1 1-3-1-3 1v-1l-1-1 3-2-3-4m-60 33l-3 2-5-3-2 2 1-1-2-2-5 1-3 3-9-5-2-4 2-5-2 2v-1l-3 1v-4l-1 2-1-2v-1m-77-31l-2 6 2 4h-6l2 3-5 4 2 3-2 1-1 7 3 2-2 3 1 1 6 2-3 1 1 3h1m-43 6v-2l-1-8-5-3-3 3 2-7 2 1 3-1 1-7 4 1 2-1-1-6m115 19v2l1-1-1 1h2l2 1h-3v1l-2-1v4l-3 1 2 9-2-6-2 1 2 3-1 2v-4l-2-2-1 2 1 2-2 3-2-1-1 2 6 4 1-1v3l-5-4v2l-2-3-3 5v2h2l-1 1 2-1-1 2 1 7m-69-37l-2 1-1 3h1v4l-3-3-2 2-2-2h-3l-2 3-7-3-4 8 2 4-1 2m77 5v-4l-2-4 1-2-3-2v-3l2-4-1-5-4 3-1-1-5 4-1-2-2 2-2-2-1 4 1-3-6-2v4l2 1m-69 4v4m139-2l1 2-4 3 6 1v3l-3-2h-5l-1 2-1-1v4l-2 1 2 2-2 2 3 3 2 3-1 2 3 2-3 2h1l-2 2 3 1 2-1 2 1 1-2 3 4 4-3 1 2h4l1 1-1 4 3 3 3-2 1 1 2-2 2 2 1-4h3l3 13M82 216l-9-8-3 1m158 24h1-1m0 3l3-1-3 1m-12 17h2l8-5 8-1-1-2-3 1-1-5h-4l-3 3 2-4 4 1 3-2-2-1v-1 1m1-1l1 1v-2l-1 1m1-10l-1 3-4-3-3 3 3 3-3 2 1 2 1-1 1 2v1l3-2m-25 51l-3 4v2m-39 112l-2-3-5-5-1-11 1-4-2-3v-5l2-6-1-1-4 1-2-3h3l-1-2 5-4 3-6-4-6 1-2-6-9h-1l1 3-1 1-4-2 1-3v-4l-2-1 2-4-1-6-3-5-8 3-10 1 3-3 1-3-7-13-1-1m26 36l-2 2-2-1-5 1-3 2-5-1-2 4h-2l-1 5h-3v3h-2l-2 4h-4l-1-2v-1l-2 1 2-2 1-3-2-3 3-8-5-4 3-1 3 1 1-5-10-2-3 1-1-1 1-3-3-2h-1v3l-3 2-6-5 3-3v-7m-34 45h1-1m93 10l-2-3-5-2v-1l-2-2v-4l-2 1h1-4l-7-5-2 2 1 2h-2v4l-8 4v2l-3 5-5-9-1 9-3-4v2l-2-1-1 2-3-1-3-6-5 1-5-4h-5l-3-1-4 2-2-1v-4l-4-7m100 81l-6-2-3-2-3 1-3-1-2 4h-6l-1 4-2 2-6-3-9 6-6 1-2-2-5 4-8-1 3-7-2-4 1-3-1-4-3-3-1-5-2-1-1-13-2 3-3-2-2 1h-2l-1-4 3-1v-2l-4-3-3 1v-2l-7-2-2-5v-3l-4-1-1-4-4-1-2-8-6-5v-3l-5-5m170 60l-4-5-5-2 1-3h-2l-2-3-2 1m-25 57v-5l2-4h-2l2-3-4-8-2-5h-5m-71 6l-10 1h-7l-3 4-2-1v4m38 39l-2-2 2-3-2-1-2-7-2-1v-3l-5-3-4 1 2-3-2-2 1-5h-5l-1 5-3-2-1-2-4 1-4-6-5 1-2-3m-39 97l10-1 3-4 2 1 6-1 5-5-1 3 1 2 3-3 6 1 1-2 1-5-7-3 1-2h-2v-3l3-8 7-2 1-4 3-5-1-1-1-6v-2l-2-1-4 4h-5l-1 4h-7l1-5h2v-2l-4 1 1-13-1-2v3l-7 5v1l-5 1h-5m238-307h-2v1l-5 12-3 1v-3l-2-1-2-6-6-3-1-2 2-3-4-11 1-7-4-1-3 1-1-2h-1m19 34l-4 1-8 5-2 3m6 81l-3-2v-1l-7-2m4 17l-12-2m-44 22l-6-1-6 4h-4l-2 3v4l-2 1v-2l-3 3 1 3m55 5l-4 3 3 2-1 2-2 4 1 1-1 4m-12-17l-1 2 2 5-1 2-11 2-2-1-1 2-4 8h-2l-1 6v1l1 2h1l3 2h3m-8-5l-1-1-8 5" fill="none" stroke="#000" stroke-width=".2" stroke-linecap="round" stroke-linejoin="round"/><path class="st1" d="M187 165l-9 10-5-1-9-6 8 7h5l2 4 7-2-3-2 3-6h2l4 2 1-2-6-4zm-68-39l4 2 4-2 5 5 3-2-1-2h-4l-3-3-4 1-14-4v1l5 4h5zm49 223h-4v2l4-2v3l-3 1 1 4 4-6-2-2zm17-53l-1 7h2l-1-3 4 3-2-1 1-2-3-1 1-2 2 2-3-3zm-67 126l-2 2 2-1 1 2-1-3zm-1 1h2v1l-2-1zm5-10l-1-1 1 4 1-2v2l2-1-2-1v-3l-3-1 3 2v3l-1-2zm24-5l-1-2h-2l-1 2v-2l-2 3h-1l-2 2 5-2 2-3v2l1-1 3 3-1-3v2l-1-1z"/></svg>